<svg xmlns="http://www.w3.org/2000/svg" xmlns:xlink="http://www.w3.org/1999/xlink" version="1.1" viewBox="0 0 256 320" x="0px" y="200spx"><path d="M215.168 58.547h-174.336c-7.066 0.026-12.774 5.735-12.8 12.8v113.331c0.026 7.065 5.735 12.774 12.8 12.8h174.336c7.065-0.025 12.774-5.734 12.8-12.8v-113.331c-0.025-7.091-5.734-12.8-12.8-12.8zM216.96 186.47c-0.487 0.487-1.101 0.743-1.792 0.743h-174.336c-0.691 0-1.306-0.281-1.792-0.743-0.486-0.487-0.742-1.101-0.768-1.817v-113.305c0-0.691 0.282-1.305 0.768-1.817 0.486-0.487 1.101-0.743 1.792-0.743h174.336c0.691 0 1.305 0.281 1.792 0.743 0.487 0.487 0.743 1.101 0.768 1.817v113.331c0 0.691-0.281 1.305-0.768 1.792z" fill="#f75252"/><path d="M152.704 89.831h-46.874c-7.066 0.025-12.775 5.734-12.8 12.8v46.873c0.025 7.066 5.734 12.774 12.8 12.8h46.874c7.065-0.025 12.774-5.734 12.8-12.8v-46.874c0-7.091-5.709-12.775-12.8-12.8z" fill="#f75252"/></svg>